<?xml version="1.0" encoding="utf-8"?>
<!-- Generator: Adobe Illustrator 21.0.0, SVG Export Plug-In . SVG Version: 6.00 Build 0)  -->
<!DOCTYPE svg PUBLIC "-//W3C//DTD SVG 1.1//EN" "http://www.w3.org/Graphics/SVG/1.1/DTD/svg11.dtd">
<svg version="1.1" id="Laag_1" xmlns="http://www.w3.org/2000/svg" xmlns:xlink="http://www.w3.org/1999/xlink" x="0px"
   y="0px" width="1275px" height="850px" viewBox="0 0 1275 850" style="enable-background:new 0 0 1275 850;"
   xml:space="preserve">
   <style type="text/css">
      .st0 {
         fill: none;
      }

      .st1 {
         fill: #F7F5F0;
      }

      .st2 {
         fill: #FFB511;
      }

      .st3 {
         fill: #0F1941;
      }
   </style>
   <rect class="st0" width="1275" height="850" />
   <circle class="st1" cx="743.9" cy="381.2" r="183" />
   <path class="st2" d="M800.5,323.1c-31.7-31.7-83-31.7-114.7,0c-24.1,24.1-29.8,59.5-17.3,89l-75.1,75.1c-6,6-8.9,13.8-8.9,21.6
	c0,1,0.1,2,0.2,3.1l-66,66c-6-2.5-12.5-3.9-19.4-3.9c-5.4,0-10.6,0.9-15.5,2.4l-42.6-42.6c3.1-6.6,4.9-14,4.9-21.7
	c0-27.9-22.6-50.5-50.5-50.5S345,484.2,345,512.1c0,7.8,1.8,15.2,4.9,21.7l-43.5,43.5c-5.7-2.2-11.8-3.4-18.2-3.4
	c-27.9,0-50.5,22.6-50.5,50.5c0,27.9,22.6,50.5,50.5,50.5c27.9,0,50.5-22.6,50.5-50.5c0-7.3-1.6-14.2-4.3-20.5l44.3-44.3
	c5.3,1.9,11,2.9,16.9,2.9c5.9,0,11.6-1,16.9-2.9l41.8,41.8c-3.5,6.9-5.5,14.7-5.5,22.9c0,27.9,22.6,50.5,50.5,50.5
	c27.9,0,50.5-22.6,50.5-50.5c0-6.9-1.4-13.4-3.9-19.4l66-66c8.8,0.9,17.9-2,24.7-8.8l75.2-75.2c29.5,12.4,64.7,6.6,88.7-17.4
	C832.2,406.1,832.2,354.8,800.5,323.1z" />
   <path class="st3" d="M1018.8,611.7l-99.1-99.1c27.5-36.7,43.8-82.2,43.8-131.5c0-121.1-98.5-219.6-219.6-219.6
	s-219.6,98.5-219.6,219.6s98.5,219.6,219.6,219.6c58.8,0,112.2-23.2,151.7-60.9l97.6,97.6c3.5,3.5,8.2,5.3,12.8,5.3
	s9.3-1.8,12.8-5.3C1025.9,630.3,1025.9,618.8,1018.8,611.7z M743.9,564.2c-100.9,0-183-82.1-183-183s82.1-183,183-183
	s183,82.1,183,183S844.8,564.2,743.9,564.2z" />
   <g>
   </g>
   <g>
   </g>
   <g>
   </g>
   <g>
   </g>
   <g>
   </g>
   <g>
   </g>
   <g>
   </g>
   <g>
   </g>
   <g>
   </g>
   <g>
   </g>
   <g>
   </g>
   <g>
   </g>
   <g>
   </g>
   <g>
   </g>
   <g>
   </g>
</svg>